<svg xmlns="http://www.w3.org/2000/svg" viewBox="0 0 688.26 118.41"><defs><style>.cls-1{fill:#a9d0de;}</style></defs><g id="Layer_2" data-name="Layer 2"><g id="Layer_3" data-name="Layer 3"><path class="cls-1" d="M3.83,33.17c12.65,3.48,15.57-2.05,25.82-6.08,7.91-3.1,15.79-1.43,24-.34,12.16,1.62,14.53-1.25,25.54-2.42,10.5-1.11,21.37.36,31.92-.06,11.51-.47,19.09-4.42,29.37-6.43,11-2.16,17.38.46,27.1-5.95,2.29-1.51,9.31-8.89,11.18-9.06,7.34-.7,5.08,4,10.18,6.48,11.3,5.53,19.09,5.39,30.71,4.79,8.47-.44,20.07,2.37,29.37.08,5.63-1.39,7.69-5.47,14.05-6.45,4.53-.71,10.86.4,15.32,1.27,9.55,1.86,15.32,5.7,25.54,6.36,10.73.69,20.52,0,30.67,2.52,17.5,4.4,42.32,7.32,61.27,3.56,11.67-2.33,17.08-7.19,29.36-6.39,11.84.77,17-1.42,28.1-3.54,8.55-1.63,16.71-2.28,25.54-5C487.46,3.82,496.36-.38,505.66,0c10.95.48,21.63,3.89,33.2,3.88,9.53,0,19.43-.18,28.06,2.58,37.44,12,78.65,8.93,118.78,11.42l2.56,81.42L0,118.41"/></g></g></svg>