<svg xmlns="http://www.w3.org/2000/svg" viewBox="0 0 673.15 101.01"><defs><style>.cls-1{fill:#6b9eb5;}</style></defs><g id="Layer_2" data-name="Layer 2"><g id="Layer_3" data-name="Layer 3"><path class="cls-1" d="M143.91,101l529.24-22.9L671.88,12c-5.41-2.32-14.71-1.27-21.63-1.27-22.67,0-45,2.24-67.43,0-21-2.1-41.31-8.61-62.34-7.57s-43.19-7.25-63.6-.35c-12.1,4.09-16,6.77-29.27,6.65-11.58-.11-22,3.25-32.79,6.64-21.9,6.86-38.63,3-60-4.45-22.94-8-45-1.4-68.75,4.55-21.13,5.29-42.47,1.18-64.07,7.76-19.73,6-22.21,4-43.69,1.94,0,0-25.19-12-38.84-15.53S97.4,16.84,94.22,19.07c-9.71,6.79-16.82.11-36.1,0s-40.63,11.6-40.63,11.6L0,25.35"/></g></g></svg>