<svg xmlns="http://www.w3.org/2000/svg" viewBox="0 0 684.44 169.25"><defs><style>.cls-1{fill:#31526b;}</style></defs><g id="Layer_2" data-name="Layer 2"><g id="Layer_3" data-name="Layer 3"><path class="cls-1" d="M25.44,26.76c22.13,12.87,47.23-1.2,70,2.54C105.92,31,114.93,39.25,126,42c10.4,2.55,21,7.22,31.8,7.7,19.67.88,45.74,1,64.89-2.52,21.48-3.94,35.47-17.78,58.58-16.63,39.93,2,81.18,15.57,118-4,12.25-6.53,14-4.7,28.26-.64,10.78,3.07,20.05-1.52,30.54,1.24,18.93,5,44.28,12.68,62.65,5.05,5.88-2.44,11-7.71,17.22-9.5,3-.86,7.56.23,10.46-.68,2.57-.8,6.52-4.3,9.22-5,13.68-3.76,28.69,1.58,42.94-3.8C613,8.39,624.72-.41,638.67,0c6.74.21,14.42,4.39,21.6,5.12,7.91.81,15.8-1.6,22.9,2.55l1.27,161.57H0"/></g></g></svg>