<svg xmlns="http://www.w3.org/2000/svg" xmlns:xlink="http://www.w3.org/1999/xlink" viewBox="0 0 440.55 111.31"><defs><style>.cls-1{opacity:0.7;fill:url(#linear-gradient);}</style><linearGradient id="linear-gradient" x1="220.28" y1="158.52" x2="220.28" y2="14.74" gradientUnits="userSpaceOnUse"><stop offset="0" stop-color="#ccdeff"/><stop offset="0.21" stop-color="#c7dbff"/><stop offset="0.45" stop-color="#bad2ff"/><stop offset="0.7" stop-color="#a3c3ff"/><stop offset="0.96" stop-color="#84afff"/><stop offset="1" stop-color="#7fabff"/></linearGradient></defs><g id="Layer_2" data-name="Layer 2"><g id="Layer_3" data-name="Layer 3"><path class="cls-1" d="M440.55,85.1c-6.79-6-11.29-14.06-21.76-16.67-11.88-3-23.91-4.89-35.5-9.88-6.46-2.79-11.56-6.5-17.12-10.36S355.42,43.5,349,41.85c-8-2-15.09-4.11-21.67-9.06-3.65-2.74-7.18-8.1-11.25-10.2-5.15-2.65-9.25-.85-14.17-4.91-2.18-1.81-3.46-4.57-6.36-5.6-2.27-.81-5.07.6-7.18-.58-1.29-.71-2.8-4.6-4.11-5.89-1.75-1.73-3.06-1.76-5.08-3.36-6.38-5-8-.49-14.16,2.71-6.78,3.49-7.9,8.48-14.63,12.08-8.55,4.58-18,9.8-22.9,15.9-5.11,6.34-17.49,6.69-24.81,10.82C186.19,53.05,177,54.22,158.13,59c-9.59,2.44-20.57-.15-30.09,1s-18.84-1.24-27.91,1.66c-21.82,7-44.61,17.68-69.22,15.89L0,92.79l434.77,18.52"/></g></g></svg>