<svg xmlns="http://www.w3.org/2000/svg" xmlns:xlink="http://www.w3.org/1999/xlink" viewBox="0 0 658.74 344.44"><defs><style>.cls-1{fill:none;}.cls-2{fill:#c5c9c9;opacity:0.3;}.cls-3{clip-path:url(#clip-path);}.cls-4{fill:#15133a;}.cls-5{fill:#fafbfb;}.cls-6{fill:#dbdbdb;}</style><clipPath id="clip-path"><rect class="cls-1" x="133.07" y="187.79" width="376.45" height="104.45"/></clipPath></defs><g id="Layer_2" data-name="Layer 2"><g id="Layer_1-2" data-name="Layer 1"><path class="cls-2" d="M315,309.16c-2,0-4.05,0-6.1,0-106.46.84-191.22-7.64-191.22-17.06,0-8.49,69.45-15.53,160.38-16.84l.19.21c-85,1.73-148.38,8.52-148.38,16.63C129.85,301.35,212.2,308.87,315,309.16Zm213.9-16.77c0,8.11-63.41,14.89-148.38,16.62.06.08.13.15.19.22,90.94-1.32,160.38-8.35,160.38-16.84,0-9.43-84.76-17.91-191.22-17.06h-6.1C446.53,275.63,528.88,283.14,528.88,292.39ZM307,318.55c-3.15,0-6.3,0-9.48,0C131.86,319.88,0,306.69,0,292c0-13.21,108-24.15,249.52-26.2l.29.33C117.61,268.86,19,279.41,19,292,19,306.41,147.08,318.11,307,318.55Zm332.79-26.09c0,12.63-98.64,23.18-230.85,25.87.09.12.21.22.3.33,141.48-2,249.52-13,249.52-26.2,0-14.66-131.87-27.85-297.51-26.54-3.18,0-6.32,0-9.48,0C511.66,266.39,639.77,278.08,639.77,292.46Z"/><g class="cls-3"><path class="cls-4" d="M492.25,198.05H460.94a11.34,11.34,0,0,0-11.34,11.33v24.83a11.29,11.29,0,0,0,3.84,8.47c-21.15-.52-42.4-1.2-63.33-2V226.25a3.85,3.85,0,0,0-7.7,0v14.16c-21.88-.84-43.37-1.79-64-2.78V221.38a3.85,3.85,0,0,0-7.69,0v15.87c-26.92-1.32-52.16-2.72-74.61-4v-6.5a2.1,2.1,0,1,0-4.2,0V233l-19.82-1.2h0c20.24-22.15,35.62-21.84,35.62-21.84l-12.41-1.08-38.55,22c-36.41-2.33-59-4-59-4,34,62.61,82.57,68.55,82.57,68.55H436.26c11.35,0,18.81-14.46,23.35-28.19h13.88v64.49H491.3v12.82h5.26V311.25H491.3v13.63h-9.2l2.16-79.34h8a11.33,11.33,0,0,0,11.33-11.33V209.38A11.33,11.33,0,0,0,492.25,198.05Zm-18.76,61.79h-11.7c1.63-6,2.67-11.32,3.19-14.3h8.51Z"/></g><rect class="cls-4" x="238.12" y="214.3" width="148.18" height="3.15"/><rect class="cls-4" x="381.75" width="9.1" height="240.41"/><path class="cls-1" d="M376.75,214.3l-1.05-.56C376.08,213.93,376.44,214.12,376.75,214.3Z"/><path class="cls-5" d="M381.75,5.34c-73.73,66.3-70.32,174.33-6.05,208.4-17.06-8.45-104.71-18.58-127.13.56C235,162,276.55,66.86,381.75,5.34Z"/><path class="cls-6" d="M381.75,5.34s-29.67,118.75-5,209c-.31-.18-.67-.37-1.05-.56C311.43,179.67,308,71.64,381.75,5.34Z"/></g></g></svg>