<svg xmlns="http://www.w3.org/2000/svg" viewBox="0 0 1280 724.93"><defs><style>.cls-1{fill:#231d54;}.cls-2{fill:#343499;}</style></defs><g id="Layer_2" data-name="Layer 2"><g id="Layer_1-2" data-name="Layer 1"><polygon class="cls-1" points="985.98 319.07 1104.07 192.57 1166.58 255.82 1280 137.63 1280 476.06 973.6 476.06 985.98 319.07"/><polygon class="cls-2" points="1104.07 192.57 1147.1 276.25 1166.58 255.82 1104.07 192.57"/><polygon class="cls-1" points="186.26 82.79 555.89 509.92 0 509.92 0 301.21 186.26 82.79"/><polygon class="cls-2" points="186.26 82.79 220.27 192.57 194.53 192.57 260.19 282.55 320 237.34 186.26 82.79"/><path class="cls-1" d="M0,429.41S109.21,411,376,192.57h48l16-32L667.2,0,1280,411.93v313H0Z"/><polygon class="cls-2" points="667.2 0 845.08 210.81 712.17 178.76 971.63 397.5 1280 411.93 667.2 0"/><polygon class="cls-2" points="971.63 397.5 807.81 584.84 1026.1 397.5 971.63 397.5"/><polygon class="cls-2" points="424 192.57 364.27 276.25 401.6 192.57 424 192.57"/></g></g></svg>