<svg xmlns="http://www.w3.org/2000/svg" xmlns:xlink="http://www.w3.org/1999/xlink" viewBox="0 0 355.95 355.95"><defs><style>.cls-1{opacity:0.5;fill:url(#radial-gradient);}.cls-2{fill:#fafbfb;}.cls-3{fill:#e0e0e0;}.cls-4{fill:#bdbdbd;}.cls-5{fill:#f5f5f5;}</style><radialGradient id="radial-gradient" cx="177.97" cy="177.97" r="177.97" gradientTransform="translate(177.97 -73.72) rotate(45)" gradientUnits="userSpaceOnUse"><stop offset="0.69" stop-color="#fff"/><stop offset="0.72" stop-color="#fff" stop-opacity="0.84"/><stop offset="0.79" stop-color="#fff" stop-opacity="0.54"/><stop offset="0.85" stop-color="#fff" stop-opacity="0.31"/><stop offset="0.9" stop-color="#fff" stop-opacity="0.14"/><stop offset="0.95" stop-color="#fff" stop-opacity="0.04"/><stop offset="0.97" stop-color="#fff" stop-opacity="0"/></radialGradient></defs><g id="Layer_2" data-name="Layer 2"><g id="Layer_1-2" data-name="Layer 1"><circle class="cls-1" cx="177.97" cy="177.97" r="177.97" transform="translate(-73.72 177.97) rotate(-45)"/><path class="cls-2" d="M311.1,178A133.13,133.13,0,1,1,178,44.85,133.12,133.12,0,0,1,311.1,178Z"/><path class="cls-3" d="M115.17,130.32a21,21,0,1,1-21-21A21,21,0,0,1,115.17,130.32Z"/><path class="cls-4" d="M75.05,132.11a20.95,20.95,0,0,1,34.84-15.69A21,21,0,1,0,80.32,146,20.86,20.86,0,0,1,75.05,132.11Z"/><path class="cls-5" d="M95,109.36h-.42a21,21,0,1,1-21.35,21.36c0,.14,0,.28,0,.41A21.78,21.78,0,1,0,95,109.36Z"/><path class="cls-3" d="M243.87,93.6a10.48,10.48,0,1,1-10.48-10.48A10.48,10.48,0,0,1,243.87,93.6Z"/><path class="cls-4" d="M223.81,94.5a10.48,10.48,0,0,1,17.42-7.85,10.47,10.47,0,1,0-14.78,14.79A10.43,10.43,0,0,1,223.81,94.5Z"/><path class="cls-5" d="M233.81,83.12h-.21a10.48,10.48,0,1,1-10.68,10.68c0,.07,0,.13,0,.2a10.9,10.9,0,1,0,10.9-10.89Z"/><path class="cls-3" d="M296.21,199.87a26.15,26.15,0,1,1-26.15-26.15A26.15,26.15,0,0,1,296.21,199.87Z"/><path class="cls-4" d="M246.15,202.11a26.14,26.14,0,0,1,43.48-19.57,26.14,26.14,0,1,0-36.9,36.9A26.05,26.05,0,0,1,246.15,202.11Z"/><path class="cls-5" d="M271.09,173.72h-.51a26.15,26.15,0,1,1-26.65,26.65c0,.18,0,.35,0,.52a27.18,27.18,0,1,0,27.18-27.18Z"/><path class="cls-3" d="M226.34,261a26.15,26.15,0,1,1-26.15-26.14A26.15,26.15,0,0,1,226.34,261Z"/><path class="cls-4" d="M176.28,263.19a26.14,26.14,0,0,1,43.48-19.57,26.14,26.14,0,1,0-36.9,36.9A26,26,0,0,1,176.28,263.19Z"/><path class="cls-5" d="M201.22,234.81h-.51a26.14,26.14,0,1,1-26.65,26.65c0,.17,0,.34,0,.52a27.18,27.18,0,1,0,27.18-27.18Z"/><path class="cls-3" d="M163.15,245.07a14.73,14.73,0,1,1-14.72-14.73A14.72,14.72,0,0,1,163.15,245.07Z"/><path class="cls-4" d="M135,246.33a14.72,14.72,0,0,1,24.49-11,14.72,14.72,0,1,0-20.78,20.78A14.63,14.63,0,0,1,135,246.33Z"/><path class="cls-5" d="M149,230.34h-.29a14.72,14.72,0,1,1-15,15c0,.1,0,.19,0,.29A15.31,15.31,0,1,0,149,230.34Z"/><path class="cls-3" d="M184.73,224.71a8.92,8.92,0,1,1-8.92-8.92A8.91,8.91,0,0,1,184.73,224.71Z"/><path class="cls-4" d="M167.66,225.47a8.92,8.92,0,0,1,14.83-6.67,8.91,8.91,0,1,0-12.58,12.58A8.87,8.87,0,0,1,167.66,225.47Z"/><path class="cls-5" d="M176.17,215.79H176a8.91,8.91,0,1,1-9.09,9.08v.18a9.27,9.27,0,1,0,9.27-9.27Z"/><path class="cls-3" d="M304.29,162.93a10.08,10.08,0,1,1-10.09-10.08A10.08,10.08,0,0,1,304.29,162.93Z"/><path class="cls-4" d="M285,163.79a10.07,10.07,0,0,1,16.76-7.54,10.08,10.08,0,1,0-14.23,14.23A10,10,0,0,1,285,163.79Z"/><path class="cls-5" d="M294.6,152.85h-.19a10.08,10.08,0,1,1-10.28,10.27v.2a10.48,10.48,0,1,0,10.47-10.48Z"/><path class="cls-3" d="M120.92,175.41a13.29,13.29,0,1,1-13.28-13.29A13.28,13.28,0,0,1,120.92,175.41Z"/><path class="cls-4" d="M95.48,176.54a13.28,13.28,0,0,1,22.1-9.94,13.28,13.28,0,1,0-18.75,18.75A13.21,13.21,0,0,1,95.48,176.54Z"/><path class="cls-5" d="M108.16,162.12h-.26a13.29,13.29,0,1,1-13.55,13.54v.26a13.81,13.81,0,1,0,13.81-13.81Z"/><path class="cls-3" d="M149,126.93a11.14,11.14,0,1,1-11.13-11.13A11.13,11.13,0,0,1,149,126.93Z"/><path class="cls-4" d="M127.69,127.88a11.14,11.14,0,0,1,18.52-8.33,11.13,11.13,0,1,0-15.72,15.71A11.09,11.09,0,0,1,127.69,127.88Z"/><path class="cls-5" d="M138.32,115.8h-.23a11.13,11.13,0,1,1-11.34,11.35c0,.07,0,.15,0,.22a11.58,11.58,0,1,0,11.58-11.57Z"/><path class="cls-3" d="M125.32,252.85a7.51,7.51,0,1,1-7.51-7.5A7.51,7.51,0,0,1,125.32,252.85Z"/><path class="cls-4" d="M110.94,253.5a7.51,7.51,0,0,1,12.49-5.62,7.51,7.51,0,1,0-10.6,10.59A7.47,7.47,0,0,1,110.94,253.5Z"/><path class="cls-5" d="M118.11,245.35H118a7.51,7.51,0,1,1-7.65,7.65c0,.05,0,.1,0,.15a7.81,7.81,0,1,0,7.81-7.8Z"/></g></g></svg>