<svg xmlns="http://www.w3.org/2000/svg" xmlns:xlink="http://www.w3.org/1999/xlink" viewBox="0 0 1280 1024"><defs><style>.cls-1{fill:url(#linear-gradient);}.cls-2{opacity:0.5;}.cls-3{fill:#a3bdb8;}.cls-4{fill:#e6e7e8;}</style><linearGradient id="linear-gradient" x1="628.98" y1="772.07" x2="668.9" y2="-170.15" gradientUnits="userSpaceOnUse"><stop offset="0" stop-color="#d8c6a7"/><stop offset="0.02" stop-color="#cbb7a3"/><stop offset="0.1" stop-color="#a68c96"/><stop offset="0.19" stop-color="#86678b"/><stop offset="0.27" stop-color="#6a4782"/><stop offset="0.37" stop-color="#542d7a"/><stop offset="0.48" stop-color="#421974"/><stop offset="0.6" stop-color="#360b70"/><stop offset="0.75" stop-color="#2f026e"/><stop offset="1" stop-color="#2d006d"/></linearGradient></defs><g id="Layer_2" data-name="Layer 2"><g id="Layer_1-2" data-name="Layer 1"><rect class="cls-1" width="1280" height="1024"/><g class="cls-2"><path class="cls-3" d="M343.28,334.15H324a7.46,7.46,0,0,1,0-14.92h19.25a7.46,7.46,0,0,1,0,14.92Z"/><path class="cls-3" d="M297.66,334.15H228.88a7.46,7.46,0,0,1,0-14.92h68.78a7.46,7.46,0,0,1,0,14.92Z"/><path class="cls-3" d="M278,166.85H148.18a7.46,7.46,0,0,1,0-14.92H278a7.46,7.46,0,0,1,0,14.92Z"/><path class="cls-3" d="M326.32,192.83H196.55a7.46,7.46,0,0,1,0-14.92H326.32a7.46,7.46,0,0,1,0,14.92Z"/><path class="cls-3" d="M236.77,179.54h-6.68a7.46,7.46,0,0,1,0-14.92h6.68a7.46,7.46,0,0,1,0,14.92Z"/><path class="cls-3" d="M938.4,328.33H820.69a7.46,7.46,0,0,1,0-14.92H938.4a7.46,7.46,0,0,1,0,14.92Z"/><path class="cls-3" d="M869.3,354.31H780.62a7.47,7.47,0,0,1,0-14.93H869.3a7.47,7.47,0,0,1,0,14.93Z"/><path class="cls-3" d="M848.85,341h-6.68a7.46,7.46,0,0,1,0-14.92h6.68a7.46,7.46,0,0,1,0,14.92Z"/><path class="cls-3" d="M1044.31,227H969.65a7.46,7.46,0,0,1,0-14.92h74.66a7.46,7.46,0,0,1,0,14.92Z"/><path class="cls-3" d="M1079.92,253h-71.21a7.46,7.46,0,0,1,0-14.92h71.21a7.46,7.46,0,0,1,0,14.92Z"/><path class="cls-3" d="M1112.53,253h-7.24a7.46,7.46,0,0,1,0-14.92h7.24a7.46,7.46,0,0,1,0,14.92Z"/></g><polygon class="cls-4" points="120.23 262.98 113.64 264.78 120.23 266.59 122 273.29 123.78 266.59 130.37 264.78 123.78 262.98 122 256.28 120.23 262.98"/><polygon class="cls-4" points="64.36 418.4 57.77 420.21 64.36 422.01 66.13 428.71 67.9 422.01 74.49 420.21 67.9 418.4 66.13 411.7 64.36 418.4"/><polygon class="cls-4" points="215.09 467.3 208.5 469.1 215.09 470.91 216.86 477.61 218.64 470.91 225.23 469.1 218.64 467.3 216.86 460.6 215.09 467.3"/><polygon class="cls-4" points="351.77 345.86 345.18 347.67 351.77 349.47 353.54 356.17 355.31 349.47 361.9 347.67 355.31 345.86 353.54 339.16 351.77 345.86"/><polygon class="cls-4" points="255.37 186.38 248.78 188.19 255.37 189.99 257.15 196.69 258.92 189.99 265.51 188.19 258.92 186.38 257.15 179.68 255.37 186.38"/><polygon class="cls-4" points="120.23 15.89 113.64 17.69 120.23 19.5 122 26.19 123.78 19.5 130.37 17.69 123.78 15.89 122 9.18 120.23 15.89"/><polygon class="cls-4" points="392.05 157.55 385.46 159.36 392.05 161.16 393.82 167.86 395.6 161.16 402.19 159.36 395.6 157.55 393.82 150.85 392.05 157.55"/><polygon class="cls-4" points="551.9 44.9 545.31 46.7 551.9 48.51 553.67 55.21 555.44 48.51 562.04 46.7 555.44 44.9 553.67 38.19 551.9 44.9"/><polygon class="cls-4" points="465.43 186.38 458.83 188.19 465.43 189.99 467.2 196.69 468.98 189.99 475.56 188.19 468.98 186.38 467.2 179.68 465.43 186.38"/><polygon class="cls-4" points="747.41 316.6 740.82 318.4 747.41 320.21 749.19 326.91 750.96 320.21 757.55 318.4 750.96 316.6 749.19 309.9 747.41 316.6"/><polygon class="cls-4" points="457.06 337.36 450.47 339.16 457.06 340.96 458.83 347.67 460.61 340.96 467.2 339.16 460.61 337.36 458.83 330.65 457.06 337.36"/><polygon class="cls-4" points="906.34 467.3 899.75 469.1 906.34 470.91 908.12 477.61 909.89 470.91 916.48 469.1 909.89 467.3 908.12 460.6 906.34 467.3"/><polygon class="cls-4" points="1051.65 426.91 1045.06 428.71 1051.65 430.52 1053.43 437.22 1055.2 430.52 1061.79 428.71 1055.2 426.91 1053.43 420.21 1051.65 426.91"/><polygon class="cls-4" points="1005.61 328.85 999.02 330.65 1005.61 332.46 1007.39 339.16 1009.16 332.46 1015.75 330.65 1009.16 328.85 1007.39 322.15 1005.61 328.85"/><polygon class="cls-4" points="1090.5 325.11 1083.91 326.91 1090.5 328.71 1092.27 335.41 1094.04 328.71 1100.63 326.91 1094.04 325.11 1092.27 318.4 1090.5 325.11"/><polygon class="cls-4" points="1182.58 236.91 1175.99 238.71 1182.58 240.52 1184.35 247.22 1186.12 240.52 1192.71 238.71 1186.12 236.91 1184.35 230.21 1182.58 236.91"/><polygon class="cls-4" points="1082.13 194.89 1075.55 196.69 1082.13 198.5 1083.91 205.2 1085.68 198.5 1092.27 196.69 1085.68 194.89 1083.91 188.19 1082.13 194.89"/><polygon class="cls-4" points="889.61 44.9 883.02 46.7 889.61 48.51 891.38 55.21 893.16 48.51 899.75 46.7 893.16 44.9 891.38 38.19 889.61 44.9"/><polygon class="cls-4" points="1165.85 44.9 1159.26 46.7 1165.85 48.51 1167.62 55.21 1169.4 48.51 1175.99 46.7 1169.4 44.9 1167.62 38.19 1165.85 44.9"/><polygon class="cls-4" points="755.77 157.55 749.19 159.36 755.77 161.16 757.55 167.86 759.32 161.16 765.91 159.36 759.32 157.55 757.55 150.85 755.77 157.55"/><polygon class="cls-4" points="617.16 228.4 610.57 230.21 617.16 232.01 618.93 238.71 620.71 232.01 627.3 230.21 620.71 228.4 618.93 221.7 617.16 228.4"/><polygon class="cls-4" points="1212.79 418.4 1206.2 420.21 1212.79 422.01 1214.56 428.71 1216.34 422.01 1222.92 420.21 1216.34 418.4 1214.56 411.7 1212.79 418.4"/></g></g></svg>